<?xml version="1.0" standalone="no"?>
<!DOCTYPE svg PUBLIC "-//W3C//DTD SVG 20010904//EN"
 "http://www.w3.org/TR/2001/REC-SVG-20010904/DTD/svg10.dtd">
<svg version="1.0" xmlns="http://www.w3.org/2000/svg"
 width="250.000000pt" height="250.000000pt" viewBox="0 0 250.000000 250.000000"
 preserveAspectRatio="xMidYMid meet">

<g transform="translate(0.000000,250.000000) scale(0.100000,-0.100000)"
fill="#000000" stroke="none">
<path d="M629 2423 c-17 -38 -49 -113 -71 -168 -108 -271 -150 -359 -191 -395
l-39 -35 26 -65 c32 -79 29 -101 -29 -185 -25 -38 -45 -79 -49 -106 -4 -24
-33 -93 -65 -154 -55 -104 -59 -115 -65 -200 -11 -148 21 -615 49 -726 10 -39
15 -111 15 -225 l0 -167 278 6 c152 4 321 7 375 7 l97 0 -14 22 c-7 13 -17 48
-20 78 -3 30 -21 117 -38 193 -29 126 -39 152 -108 280 -67 124 -85 148 -138
192 -33 28 -61 55 -61 62 -1 6 -12 25 -26 41 -22 26 -25 39 -25 103 1 56 6 85
23 118 20 40 30 47 125 89 l103 45 82 -12 c58 -9 109 -10 174 -4 l92 9 10 -43
c17 -66 44 -83 396 -262 53 -27 88 -36 145 -42 l74 -6 63 -68 c55 -59 63 -72
63 -107 0 -45 17 -83 53 -116 l25 -24 71 53 c52 39 71 60 71 76 0 13 -39 75
-94 147 -107 142 -122 183 -86 243 11 19 20 36 20 39 0 2 -18 -5 -40 -16 l-40
-20 0 39 c0 57 17 88 59 105 31 12 39 12 57 1 12 -8 24 -11 28 -8 12 12 6 49
-14 78 -17 25 -19 40 -13 95 6 68 14 80 49 80 18 0 34 17 34 35 0 3 -14 20
-31 40 l-31 35 17 43 c9 23 33 71 54 107 21 36 84 157 140 269 89 178 99 203
79 197 -13 -4 -75 -20 -138 -37 -226 -60 -347 -102 -488 -170 l-142 -69 -63
15 c-34 9 -107 18 -162 22 l-100 6 -118 180 c-115 176 -119 181 -224 263 -97
76 -110 84 -150 84 l-44 0 -30 -67z m847 -1125 c39 -19 52 -33 80 -88 18 -36
42 -78 53 -95 12 -16 21 -33 21 -37 0 -4 -34 8 -76 27 -42 19 -106 44 -142 55
-52 16 -80 33 -127 75 -32 30 -56 57 -52 61 7 7 101 21 159 23 21 0 58 -9 84
-21z"/>
<path d="M1394 695 c5 -11 10 -27 13 -36 2 -8 68 -49 145 -90 166 -87 274
-119 310 -89 23 18 26 17 -122 53 -49 11 -267 120 -330 165 -23 16 -24 16 -16
-3z"/>
<path d="M1170 294 c-45 -18 -77 -76 -89 -161 -5 -34 -17 -75 -26 -92 l-16
-31 195 0 195 0 -37 51 c-20 28 -67 87 -104 131 -38 44 -68 88 -68 99 0 22 -4
23 -50 3z"/>
</g>
</svg>
